<svg width="234" height="105" viewBox="0 0 234 105" fill="none" xmlns="http://www.w3.org/2000/svg">
<rect width="8" height="96" fill="#08D16B"/>
<rect x="226" width="8" height="96" fill="#08D16B"/>
<rect x="158" width="8" height="96" fill="#08D16B"/>
<rect x="50" width="8" height="96" fill="#08D16B"/>
<rect x="72" width="8" height="96" fill="#08D16B"/>
<rect x="13" width="14" height="96" fill="#08D16B"/>
<rect x="180" width="14" height="96" fill="#08D16B"/>
<rect x="139" width="14" height="96" fill="#08D16B"/>
<rect x="32" width="4" height="96" fill="#08D16B"/>
<rect x="199" width="4" height="96" fill="#08D16B"/>
<rect x="171" width="4" height="96" fill="#08D16B"/>
<rect x="63" width="4" height="96" fill="#08D16B"/>
<rect x="41" width="4" height="96" fill="#08D16B"/>
<rect x="85" width="4" height="96" fill="#08D16B"/>
<rect x="94" width="4" height="96" fill="#08D16B"/>
<rect x="103" width="4" height="96" fill="#08D16B"/>
<rect x="130" width="4" height="96" fill="#08D16B"/>
<rect x="112" width="4" height="96" fill="#08D16B"/>
<rect x="217" width="4" height="96" fill="#08D16B"/>
<rect x="30" y="81" width="68" height="15" fill="black"/>
<rect x="116" y="81" width="78" height="15" fill="black"/>
<path d="M32.5713 94.54C32.5713 92.835 32.7529 91.5166 33.1162 90.585C33.4854 89.6533 34.0039 88.9473 34.6719 88.4668C35.3398 87.9863 36.0869 87.7461 36.9131 87.7461C37.751 87.7461 38.5098 87.9893 39.1895 88.4756C39.8691 88.9561 40.4053 89.6797 40.7979 90.6465C41.1963 91.6133 41.3955 92.9111 41.3955 94.54C41.3955 96.1631 41.1992 97.4551 40.8066 98.416C40.4199 99.377 39.8838 100.104 39.1982 100.596C38.5127 101.082 37.751 101.325 36.9131 101.325C36.0869 101.325 35.3428 101.088 34.6807 100.613C34.0186 100.139 33.5 99.4326 33.125 98.4951C32.7559 97.5518 32.5713 96.2334 32.5713 94.54ZM33.793 94.5664C33.793 96.0254 33.9219 97.1299 34.1797 97.8799C34.4434 98.624 34.8301 99.1895 35.3398 99.5762C35.8496 99.9629 36.3887 100.156 36.957 100.156C37.5312 100.156 38.0674 99.9688 38.5654 99.5938C39.0635 99.2129 39.4414 98.6445 39.6992 97.8887C40.0215 96.9688 40.1826 95.8613 40.1826 94.5664C40.1826 93.2656 40.0391 92.2021 39.752 91.376C39.4648 90.5439 39.0664 89.9375 38.5566 89.5566C38.0527 89.1699 37.5195 88.9766 36.957 88.9766C36.3828 88.9766 35.8438 89.1699 35.3398 89.5566C34.8359 89.9375 34.4521 90.5029 34.1885 91.2529C33.9248 91.9971 33.793 93.1016 33.793 94.5664Z" fill="#08D16B"/>
<path d="M68.6641 86.7461H68.9277V95.7549H70.4922V96.9941H68.9277V100H67.6357V96.9941H61.457L68.6641 86.7461ZM67.6357 95.7549V90.3672L63.8301 95.7549H67.6357Z" fill="#08D16B"/>
<path d="M177.664 86.7461H177.928V95.7549H179.492V96.9941H177.928V100H176.636V96.9941H170.457L177.664 86.7461ZM176.636 95.7549V90.3672L172.83 95.7549H176.636Z" fill="#08D16B"/>
<path d="M122.083 91.123H120.844C120.879 89.8457 121.304 88.7969 122.118 87.9766C122.938 87.1562 123.949 86.7461 125.15 86.7461C126.34 86.7461 127.301 87.1299 128.033 87.8975C128.771 88.665 129.141 89.5703 129.141 90.6133C129.141 91.3457 128.965 92.0342 128.613 92.6787C128.262 93.3174 127.579 94.1846 126.565 95.2803L123.349 98.752H129.316V100H120.536L125.476 94.665C126.478 93.5928 127.128 92.7988 127.427 92.2832C127.731 91.7617 127.884 91.2139 127.884 90.6396C127.884 89.9131 127.611 89.2891 127.066 88.7676C126.527 88.2402 125.865 87.9766 125.08 87.9766C124.254 87.9766 123.565 88.252 123.015 88.8027C122.47 89.3535 122.159 90.127 122.083 91.123Z" fill="#08D16B"/>
<path d="M136.331 87.0713H138.871V100H137.588V88.3369H135.558L136.331 87.0713Z" fill="#08D16B"/>
<path d="M146.292 87.0713H154.492L147.575 100.325L146.512 99.7803L152.488 88.293H146.292V87.0713Z" fill="#08D16B"/>
<path d="M160.083 91.123H158.844C158.879 89.8457 159.304 88.7969 160.118 87.9766C160.938 87.1562 161.949 86.7461 163.15 86.7461C164.34 86.7461 165.301 87.1299 166.033 87.8975C166.771 88.665 167.141 89.5703 167.141 90.6133C167.141 91.3457 166.965 92.0342 166.613 92.6787C166.262 93.3174 165.579 94.1846 164.565 95.2803L161.349 98.752H167.316V100H158.536L163.476 94.665C164.478 93.5928 165.128 92.7988 165.427 92.2832C165.731 91.7617 165.884 91.2139 165.884 90.6396C165.884 89.9131 165.611 89.2891 165.066 88.7676C164.527 88.2402 163.865 87.9766 163.08 87.9766C162.254 87.9766 161.565 88.252 161.015 88.8027C160.47 89.3535 160.159 90.127 160.083 91.123Z" fill="#08D16B"/>
<path d="M54.6006 86.7461L55.6641 87.4404L52.1748 92.7314C52.6436 92.5732 53.083 92.4941 53.4932 92.4941C54.5186 92.4941 55.3887 92.8662 56.1035 93.6104C56.8184 94.3486 57.1758 95.2598 57.1758 96.3438C57.1758 97.0879 57.0029 97.7617 56.6572 98.3652C56.3115 98.9629 55.8193 99.4404 55.1807 99.7979C54.5479 100.149 53.8652 100.325 53.1328 100.325C52.4238 100.325 51.7646 100.155 51.1553 99.8154C50.5518 99.4697 50.0771 98.9863 49.7314 98.3652C49.3857 97.7441 49.2129 97.0791 49.2129 96.3701C49.2129 95.8428 49.3184 95.2891 49.5293 94.709C49.7461 94.123 50.1299 93.4199 50.6807 92.5996L54.6006 86.7461ZM53.1855 93.6279C52.4355 93.6279 51.7939 93.8945 51.2607 94.4277C50.7334 94.9551 50.4697 95.5967 50.4697 96.3525C50.4697 97.1025 50.7334 97.7441 51.2607 98.2773C51.7939 98.8047 52.4355 99.0684 53.1855 99.0684C53.9355 99.0684 54.5742 98.8047 55.1016 98.2773C55.6348 97.7441 55.9014 97.1025 55.9014 96.3525C55.9014 95.5967 55.6348 94.9551 55.1016 94.4277C54.5742 93.8945 53.9355 93.6279 53.1855 93.6279Z" fill="#08D16B"/>
<path d="M77.3818 90.0684H76.0635C76.3037 89.002 76.7637 88.1816 77.4434 87.6074C78.123 87.0332 78.9258 86.7461 79.8516 86.7461C80.5254 86.7461 81.1523 86.9014 81.7324 87.2119C82.3184 87.5166 82.7695 87.9297 83.0859 88.4512C83.4082 88.9727 83.5693 89.5176 83.5693 90.0859C83.5693 91.1992 83.0156 92.0811 81.9082 92.7314C82.5293 92.9834 83.0391 93.3525 83.4375 93.8389C84 94.5244 84.2812 95.292 84.2812 96.1416C84.2812 96.874 84.0879 97.5742 83.7012 98.2422C83.3145 98.9043 82.7871 99.417 82.1191 99.7803C81.4512 100.144 80.7041 100.325 79.8779 100.325C78.7646 100.325 77.8359 100.006 77.0918 99.3672C76.3477 98.7227 75.8613 97.7793 75.6328 96.5371H76.8984C77.1211 97.375 77.4404 97.9814 77.8564 98.3564C78.3896 98.8311 79.0693 99.0684 79.8955 99.0684C80.833 99.0684 81.5859 98.7871 82.1543 98.2246C82.7227 97.6621 83.0068 97.0029 83.0068 96.2471C83.0068 95.7432 82.8633 95.2715 82.5762 94.832C82.2949 94.3926 81.9141 94.0615 81.4336 93.8389C80.959 93.6162 80.2207 93.4785 79.2188 93.4258V92.2393C79.8105 92.2393 80.3496 92.1367 80.8359 91.9316C81.3223 91.7207 81.6738 91.4541 81.8906 91.1318C82.1133 90.8096 82.2246 90.458 82.2246 90.0771C82.2246 89.5146 81.999 89.0283 81.5479 88.6182C81.1025 88.208 80.5371 88.0029 79.8516 88.0029C79.2949 88.0029 78.8145 88.1611 78.4102 88.4775C78.0059 88.7881 77.6631 89.3184 77.3818 90.0684Z" fill="#08D16B"/>
<path d="M186.382 90.0684H185.063C185.304 89.002 185.764 88.1816 186.443 87.6074C187.123 87.0332 187.926 86.7461 188.852 86.7461C189.525 86.7461 190.152 86.9014 190.732 87.2119C191.318 87.5166 191.77 87.9297 192.086 88.4512C192.408 88.9727 192.569 89.5176 192.569 90.0859C192.569 91.1992 192.016 92.0811 190.908 92.7314C191.529 92.9834 192.039 93.3525 192.438 93.8389C193 94.5244 193.281 95.292 193.281 96.1416C193.281 96.874 193.088 97.5742 192.701 98.2422C192.314 98.9043 191.787 99.417 191.119 99.7803C190.451 100.144 189.704 100.325 188.878 100.325C187.765 100.325 186.836 100.006 186.092 99.3672C185.348 98.7227 184.861 97.7793 184.633 96.5371H185.898C186.121 97.375 186.44 97.9814 186.856 98.3564C187.39 98.8311 188.069 99.0684 188.896 99.0684C189.833 99.0684 190.586 98.7871 191.154 98.2246C191.723 97.6621 192.007 97.0029 192.007 96.2471C192.007 95.7432 191.863 95.2715 191.576 94.832C191.295 94.3926 190.914 94.0615 190.434 93.8389C189.959 93.6162 189.221 93.4785 188.219 93.4258V92.2393C188.811 92.2393 189.35 92.1367 189.836 91.9316C190.322 91.7207 190.674 91.4541 190.891 91.1318C191.113 90.8096 191.225 90.458 191.225 90.0771C191.225 89.5146 190.999 89.0283 190.548 88.6182C190.103 88.208 189.537 88.0029 188.852 88.0029C188.295 88.0029 187.814 88.1611 187.41 88.4775C187.006 88.7881 186.663 89.3184 186.382 90.0684Z" fill="#08D16B"/>
<path d="M91.3818 90.0684H90.0635C90.3037 89.002 90.7637 88.1816 91.4434 87.6074C92.123 87.0332 92.9258 86.7461 93.8516 86.7461C94.5254 86.7461 95.1523 86.9014 95.7324 87.2119C96.3184 87.5166 96.7695 87.9297 97.0859 88.4512C97.4082 88.9727 97.5693 89.5176 97.5693 90.0859C97.5693 91.1992 97.0156 92.0811 95.9082 92.7314C96.5293 92.9834 97.0391 93.3525 97.4375 93.8389C98 94.5244 98.2812 95.292 98.2812 96.1416C98.2812 96.874 98.0879 97.5742 97.7012 98.2422C97.3145 98.9043 96.7871 99.417 96.1191 99.7803C95.4512 100.144 94.7041 100.325 93.8779 100.325C92.7646 100.325 91.8359 100.006 91.0918 99.3672C90.3477 98.7227 89.8613 97.7793 89.6328 96.5371H90.8984C91.1211 97.375 91.4404 97.9814 91.8564 98.3564C92.3896 98.8311 93.0693 99.0684 93.8955 99.0684C94.833 99.0684 95.5859 98.7871 96.1543 98.2246C96.7227 97.6621 97.0068 97.0029 97.0068 96.2471C97.0068 95.7432 96.8633 95.2715 96.5762 94.832C96.2949 94.3926 95.9141 94.0615 95.4336 93.8389C94.959 93.6162 94.2207 93.4785 93.2188 93.4258V92.2393C93.8105 92.2393 94.3496 92.1367 94.8359 91.9316C95.3223 91.7207 95.6738 91.4541 95.8906 91.1318C96.1133 90.8096 96.2246 90.458 96.2246 90.0771C96.2246 89.5146 95.999 89.0283 95.5479 88.6182C95.1025 88.208 94.5371 88.0029 93.8516 88.0029C93.2949 88.0029 92.8145 88.1611 92.4102 88.4775C92.0059 88.7881 91.6631 89.3184 91.3818 90.0684Z" fill="#08D16B"/>
</svg>
