<svg width="134" height="112" viewBox="0 0 134 112" fill="none" xmlns="http://www.w3.org/2000/svg">
<path d="M88.6504 39.5H45.3496L67 2L88.6504 39.5Z" fill="#08D16B" stroke="black" stroke-width="2"/>
<path d="M48.6504 109.5H5.34961L27 72L48.6504 109.5Z" fill="#08D16B" stroke="black" stroke-width="2"/>
<path d="M128.65 109.5H85.3496L107 72L128.65 109.5Z" fill="#08D16B" stroke="black" stroke-width="2"/>
<path d="M121.889 105.765H12.4639L67.1758 11L121.889 105.765Z" fill="black" stroke="#08D16B" stroke-width="2"/>
<mask id="path-5-outside-1_531_228" maskUnits="userSpaceOnUse" x="60.0654" y="43.9609" width="14" height="51" fill="black">
<rect fill="white" x="60.0654" y="43.9609" width="14" height="51"/>
<path d="M62.6904 45.8359H71.3154V79.4297H62.6904V45.8359ZM67.0029 83.1484C68.4821 83.1484 69.7425 83.6693 70.7842 84.7109C71.8467 85.7526 72.3779 87.013 72.3779 88.4922C72.3779 89.9505 71.8467 91.2109 70.7842 92.2734C69.7425 93.3151 68.4821 93.8359 67.0029 93.8359C65.5238 93.8359 64.2633 93.3151 63.2217 92.2734C62.18 91.2318 61.6592 89.9714 61.6592 88.4922C61.6592 87.013 62.18 85.7526 63.2217 84.7109C64.2633 83.6693 65.5238 83.1484 67.0029 83.1484Z"/>
</mask>
<path d="M62.6904 45.8359H71.3154V79.4297H62.6904V45.8359ZM67.0029 83.1484C68.4821 83.1484 69.7425 83.6693 70.7842 84.7109C71.8467 85.7526 72.3779 87.013 72.3779 88.4922C72.3779 89.9505 71.8467 91.2109 70.7842 92.2734C69.7425 93.3151 68.4821 93.8359 67.0029 93.8359C65.5238 93.8359 64.2633 93.3151 63.2217 92.2734C62.18 91.2318 61.6592 89.9714 61.6592 88.4922C61.6592 87.013 62.18 85.7526 63.2217 84.7109C64.2633 83.6693 65.5238 83.1484 67.0029 83.1484Z" fill="#08D16B"/>
<path d="M62.6904 45.8359V44.8359H61.6904V45.8359H62.6904ZM71.3154 45.8359H72.3154V44.8359H71.3154V45.8359ZM71.3154 79.4297V80.4297H72.3154V79.4297H71.3154ZM62.6904 79.4297H61.6904V80.4297H62.6904V79.4297ZM70.7842 84.7109L70.077 85.4181L70.0841 85.425L70.7842 84.7109ZM70.7842 92.2734L70.0771 91.5663L70.7842 92.2734ZM63.2217 84.7109L62.5146 84.0038L63.2217 84.7109ZM62.6904 45.8359V46.8359H71.3154V45.8359V44.8359H62.6904V45.8359ZM71.3154 45.8359H70.3154V79.4297H71.3154H72.3154V45.8359H71.3154ZM71.3154 79.4297V78.4297H62.6904V79.4297V80.4297H71.3154V79.4297ZM62.6904 79.4297H63.6904V45.8359H62.6904H61.6904V79.4297H62.6904ZM67.0029 83.1484V84.1484C68.2181 84.1484 69.2238 84.5648 70.0771 85.418L70.7842 84.7109L71.4913 84.0038C70.2612 82.7738 68.7461 82.1484 67.0029 82.1484V83.1484ZM70.7842 84.7109L70.0841 85.425C70.9561 86.2799 71.3779 87.2835 71.3779 88.4922H72.3779H73.3779C73.3779 86.7426 72.7373 85.2253 71.4843 83.9969L70.7842 84.7109ZM72.3779 88.4922H71.3779C71.3779 89.6764 70.9584 90.685 70.0771 91.5663L70.7842 92.2734L71.4913 92.9805C72.735 91.7369 73.3779 90.2246 73.3779 88.4922H72.3779ZM70.7842 92.2734L70.0771 91.5663C69.2238 92.4196 68.2181 92.8359 67.0029 92.8359V93.8359V94.8359C68.7461 94.8359 70.2612 94.2106 71.4913 92.9805L70.7842 92.2734ZM67.0029 93.8359V92.8359C65.7878 92.8359 64.7821 92.4196 63.9288 91.5663L63.2217 92.2734L62.5146 92.9805C63.7446 94.2106 65.2598 94.8359 67.0029 94.8359V93.8359ZM63.2217 92.2734L63.9288 91.5663C63.0755 90.7131 62.6592 89.7074 62.6592 88.4922H61.6592H60.6592C60.6592 90.2353 61.2845 91.7505 62.5146 92.9805L63.2217 92.2734ZM61.6592 88.4922H62.6592C62.6592 87.277 63.0755 86.2713 63.9288 85.418L63.2217 84.7109L62.5146 84.0038C61.2845 85.2339 60.6592 86.749 60.6592 88.4922H61.6592ZM63.2217 84.7109L63.9288 85.418C64.7821 84.5648 65.7878 84.1484 67.0029 84.1484V83.1484V82.1484C65.2598 82.1484 63.7446 82.7738 62.5146 84.0038L63.2217 84.7109Z" fill="black" mask="url(#path-5-outside-1_531_228)"/>
</svg>