<svg width="241" height="315" viewBox="0 0 241 315" fill="none" xmlns="http://www.w3.org/2000/svg">
<path d="M0 67.4102V246.943L134.529 197.119L22.5739 156.949L135.24 116.868L0 67.4102Z" fill="#08D16B"/>
<path d="M215.21 314.806L92.957 157.859L217.451 0L239.762 16.664L198.443 112.767C193.961 123.243 184.637 151.027 184.637 157.859C184.637 166.057 194.796 192.018 198.978 201.128L240.21 300.053L215.21 314.806Z" fill="#08D16B"/>
<path d="M219.531 10.3516L229.956 19.0769L198.68 92.6189C191.117 110.693 175.683 148.959 175.683 157.436C175.683 165.912 184.78 188.805 188.868 199.192L229.956 297.041L217.691 304.519L104.852 157.436L219.531 10.3516Z" stroke="#070707" stroke-width="2"/>
<path d="M112.823 197.323L8.56975 235.963L6.72998 236.586V158.059L112.823 197.323Z" stroke="#070707" stroke-width="2"/>
<path d="M114.05 117.547L6.72998 156.188V78.9062L114.05 117.547Z" stroke="#070707" stroke-width="2"/>
<path d="M102.399 197.323L10.4109 230.978V163.668L102.399 197.323Z" fill="#070707"/>
<path d="M102.399 117.549L10.4109 150.58V84.5172L102.399 117.549Z" fill="#070707"/>
<path d="M220.144 15.3379L225.664 20.3238L186.415 110.693C181.509 122.535 171.697 148.461 171.697 157.436C171.697 166.411 180.283 189.013 184.575 199.193L225.05 295.795L218.918 299.534L109.758 157.436L220.144 15.3379Z" fill="#070707"/>
<path d="M102.399 197.321L10.4111 230.976V163.666L102.399 197.321Z" fill="black"/>
<path d="M102.399 117.547L10.4111 150.578V84.5152L102.399 117.547Z" fill="black"/>
<path d="M220.145 15.3359L225.664 20.3218L186.415 110.691C181.509 122.533 171.697 148.459 171.697 157.434C171.697 166.409 180.283 189.011 184.576 199.191L225.051 295.793L218.918 299.532L109.759 157.434L220.145 15.3359Z" fill="black"/>
</svg>
