<svg width="428" height="635" viewBox="0 0 428 635" fill="none" xmlns="http://www.w3.org/2000/svg">
<path d="M1.40625 171.64C35.9043 318.172 282.404 277.172 315.91 235.141C315.91 244.642 315.91 288.172 314.909 352.143C117.904 352.143 30.9043 417.672 26.9093 501.143C31.4043 558.172 91.9043 628.172 182.91 634.143C276.904 646.172 432.215 501.143 426.909 291.143C420.404 33.6719 243.404 2.48304 191.907 0.142269C125.907 -2.85773 -15.5959 41.1733 1.40625 171.64Z" fill="#08D16B"/>
<path d="M197.91 626.171C302.91 624.171 417.91 454.171 416.91 310.171C421.91 39.1693 225.909 9.17056 190.909 7.17056C155.909 5.17056 7.90934 31.1706 8.90934 155.171C9.90934 279.171 257.909 295.171 323.91 216.171C323.91 263.171 325.91 310.171 323.91 361.171C70.9103 358.171 29.9103 466.171 37.9103 509.171C45.9103 552.171 92.9103 628.171 197.91 626.171Z" fill="#070707" stroke="#08D16B" stroke-width="3"/>
<path d="M328.903 410.183C328.903 511.172 154.669 640.172 91.9031 505.183C71.9042 462.173 201.905 402.172 328.903 410.183Z" fill="#08D16B" stroke="#08D16B" stroke-width="3"/>
<path d="M324.904 157.173C303.904 41.1723 70.9043 27.172 49.9043 157.173C49.9042 214.173 232.904 259.173 324.904 157.173Z" fill="#08D16B" stroke="#08D16B" stroke-width="3"/>
<path d="M58.9043 159.166C66.9043 55.1713 284.404 35.6636 317.904 154.666C217.904 255.672 61.9043 197.672 58.9043 159.166Z" stroke="#070707" stroke-width="3"/>
<path d="M322.397 418.192C294.414 528.66 152.914 619.16 98.8966 500.692C88.4005 466.665 231.906 407.672 322.397 418.192Z" stroke="#070707" stroke-width="3"/>
</svg>
