<svg width="593" height="610" viewBox="0 0 593 610" fill="none" xmlns="http://www.w3.org/2000/svg">
<path d="M126.5 41.5L50 129.5L185.5 248L0 245L8 362.5L192.5 335.5L53 432L151.5 533.5L255 372.5V609.5H310.5L328.5 399L449 547L496 513L382 327L592.5 316V254.5L376 255.5V254.5L542 76.5L494 34L323 206.5L351 1L225.5 0L250 191L126.5 41.5Z" fill="#08D16B"/>
<path d="M224 262.5H20.5L24.5 341L220.5 315.5L227 329.5L77 433.5L148 508.5L252.5 349L270 355V592.5H297.5L316.5 359.5L451.5 524.5L473.5 508.5L352.5 312L576 300V271.5H359.5L356 252.5L517 76.5L496 57L321 230.5L305.5 224L330.5 18.5H247L270 224L259.5 228L128 70.5L78.5 128L224 262.5Z" fill="#070707" stroke="#08D16B" stroke-width="7"/>
<path d="M214.5 258.5H16L21 345.5L219 320L223.5 328L71 433.5L148.5 514L253.5 353.5L266 358V597H301L318.5 368.5L450.5 529L478 510L359 315L579.5 303V269H363L359 253.5L521.5 76.5L495.5 53L321 227L309 222L334.5 15.5H243L266 222L261.5 224.5L128 65L74 128.5L214.5 258.5Z" stroke="#070707" stroke-width="3"/>
</svg>
