<svg width="342" height="103" viewBox="0 0 342 103" fill="none" xmlns="http://www.w3.org/2000/svg">
<path d="M170.293 1C197.219 1.00001 219.096 23.4933 219.096 51.3027C219.096 79.1121 197.219 101.605 170.293 101.605C143.368 101.605 121.491 79.1121 121.491 51.3027C121.491 23.4933 143.368 1 170.293 1Z" fill="#08D16B" stroke="#08D16B" stroke-width="2"/>
<mask id="path-2-inside-1_531_441" fill="white">
<path d="M114.064 92.6777L113.028 92.6641C91.3255 92.0977 73.9012 73.7973 73.9011 51.3047C73.9011 28.4552 91.8827 9.93186 114.064 9.93164V92.6777Z"/>
</mask>
<path d="M114.064 92.6777L113.028 92.6641C91.3255 92.0977 73.9012 73.7973 73.9011 51.3047C73.9011 28.4552 91.8827 9.93186 114.064 9.93164V92.6777Z" fill="#08D16B"/>
<path d="M114.064 92.6777L114.038 94.6776L116.064 94.7043V92.6777H114.064ZM113.028 92.6641L112.976 94.6634L112.989 94.6637L113.002 94.6639L113.028 92.6641ZM73.9011 51.3047H71.9011V51.3047L73.9011 51.3047ZM114.064 9.93164H116.064V7.93162L114.064 7.93164L114.064 9.93164ZM114.064 92.6777L114.091 90.6779L113.054 90.6642L113.028 92.6641L113.002 94.6639L114.038 94.6776L114.064 92.6777ZM113.028 92.6641L113.08 90.6647C92.5122 90.128 75.9012 72.7644 75.9011 51.3047L73.9011 51.3047L71.9011 51.3047C71.9012 74.8302 90.1388 94.0674 112.976 94.6634L113.028 92.6641ZM73.9011 51.3047H75.9011C75.9011 29.5034 93.0428 11.9318 114.064 11.9316L114.064 9.93164L114.064 7.93164C90.7226 7.93187 71.9011 27.407 71.9011 51.3047H73.9011ZM114.064 9.93164H112.064V92.6777H114.064H116.064V9.93164H114.064Z" fill="#08D16B" mask="url(#path-2-inside-1_531_441)"/>
<mask id="path-4-inside-2_531_441" fill="white">
<path d="M65.6025 83.8545C48.0039 83.8545 33.7373 69.1579 33.7373 51.0293C33.7375 32.9008 48.004 18.2051 65.6025 18.2051V83.8545Z"/>
</mask>
<path d="M65.6025 83.8545C48.0039 83.8545 33.7373 69.1579 33.7373 51.0293C33.7375 32.9008 48.004 18.2051 65.6025 18.2051V83.8545Z" fill="#08D16B"/>
<path d="M65.6025 83.8545L65.6025 85.8545H67.6025V83.8545H65.6025ZM33.7373 51.0293L31.7373 51.0293V51.0293H33.7373ZM65.6025 18.2051H67.6025V16.2051L65.6025 16.2051L65.6025 18.2051ZM65.6025 83.8545L65.6025 81.8545C49.164 81.8545 35.7373 68.1098 35.7373 51.0293H33.7373H31.7373C31.7373 70.2061 46.8437 85.8545 65.6025 85.8545L65.6025 83.8545ZM33.7373 51.0293L35.7373 51.0293C35.7375 33.9491 49.1641 20.2051 65.6025 20.2051L65.6025 18.2051L65.6025 16.2051C46.8439 16.2051 31.7375 31.8526 31.7373 51.0293L33.7373 51.0293ZM65.6025 18.2051H63.6025V83.8545H65.6025H67.6025V18.2051H65.6025Z" fill="#08D16B" mask="url(#path-4-inside-2_531_441)"/>
<mask id="path-6-inside-3_531_441" fill="white">
<path d="M24.9941 76.3193C11.1903 76.3191 0 64.7919 0 50.5723C0.000238077 36.3528 11.1904 24.8264 24.9941 24.8262V76.3193Z"/>
</mask>
<path d="M24.9941 76.3193C11.1903 76.3191 0 64.7919 0 50.5723C0.000238077 36.3528 11.1904 24.8264 24.9941 24.8262V76.3193Z" fill="#08D16B"/>
<path d="M24.9941 76.3193L24.9941 78.3193L26.9941 78.3194V76.3193H24.9941ZM0 50.5723L-2 50.5722V50.5723H0ZM24.9941 24.8262H26.9941V22.8261L24.9941 22.8262L24.9941 24.8262ZM24.9941 76.3193L24.9942 74.3193C12.3503 74.3191 2 63.7437 2 50.5723H0H-2C-2 65.8401 10.0302 78.319 24.9941 78.3193L24.9941 76.3193ZM0 50.5723L2 50.5723C2.00022 37.4011 12.3504 26.8264 24.9942 26.8262L24.9941 24.8262L24.9941 22.8262C10.0304 22.8265 -1.99974 35.3045 -2 50.5722L0 50.5723ZM24.9941 24.8262H22.9941V76.3193H24.9941H26.9941V24.8262H24.9941Z" fill="#08D16B" mask="url(#path-6-inside-3_531_441)"/>
<mask id="path-8-inside-4_531_441" fill="white">
<path fill-rule="evenodd" clip-rule="evenodd" d="M228.129 9.93164L229.165 9.94531C250.868 10.5116 268.292 28.812 268.292 51.3047C268.292 74.1542 250.311 92.6776 228.129 92.6777L228.129 9.93164Z"/>
</mask>
<path fill-rule="evenodd" clip-rule="evenodd" d="M228.129 9.93164L229.165 9.94531C250.868 10.5116 268.292 28.812 268.292 51.3047C268.292 74.1542 250.311 92.6776 228.129 92.6777L228.129 9.93164Z" fill="#08D16B"/>
<path d="M228.129 9.93164L228.156 7.93181L226.129 7.90507L226.129 9.93164L228.129 9.93164ZM229.165 9.94531L229.217 7.94599L229.205 7.94565L229.192 7.94548L229.165 9.94531ZM268.292 51.3047L270.292 51.3047L270.292 51.3047L268.292 51.3047ZM228.129 92.6777L226.129 92.6777L226.129 94.6777L228.129 94.6777L228.129 92.6777ZM228.129 9.93164L228.103 11.9315L229.139 11.9451L229.165 9.94531L229.192 7.94548L228.156 7.93181L228.129 9.93164ZM229.165 9.94531L229.113 11.9446C249.681 12.4813 266.292 29.8449 266.292 51.3047L268.292 51.3047L270.292 51.3047C270.292 27.7791 252.055 8.54188 229.217 7.94599L229.165 9.94531ZM268.292 51.3047L266.292 51.3047C266.292 73.106 249.151 90.6776 228.129 90.6777L228.129 92.6777L228.129 94.6777C251.471 94.6776 270.292 75.2024 270.292 51.3047L268.292 51.3047ZM228.129 92.6777L230.129 92.6777L230.129 9.93164L228.129 9.93164L226.129 9.93164L226.129 92.6777L228.129 92.6777Z" fill="#08D16B" mask="url(#path-8-inside-4_531_441)"/>
<mask id="path-10-inside-5_531_441" fill="white">
<path d="M276.326 18.2031C293.924 18.2036 308.19 32.899 308.19 51.0273C308.19 69.1555 293.924 83.8511 276.326 83.8516L276.326 18.2031Z"/>
</mask>
<path d="M276.326 18.2031C293.924 18.2036 308.19 32.899 308.19 51.0273C308.19 69.1555 293.924 83.8511 276.326 83.8516L276.326 18.2031Z" fill="#08D16B"/>
<path d="M276.326 18.2031L276.326 16.2031L274.326 16.2031L274.326 18.2031L276.326 18.2031ZM308.19 51.0273L310.19 51.0274L310.19 51.0273L308.19 51.0273ZM276.326 83.8516L274.326 83.8516L274.326 85.8516L276.326 85.8516L276.326 83.8516ZM276.326 18.2031L276.326 20.2031C292.764 20.2035 306.19 33.9472 306.19 51.0273L308.19 51.0273L310.19 51.0273C310.19 31.8507 295.084 16.2036 276.326 16.2031L276.326 18.2031ZM308.19 51.0273L306.19 51.0273C306.19 68.1073 292.764 81.8511 276.326 81.8516L276.326 83.8516L276.326 85.8516C295.084 85.8511 310.19 70.2038 310.19 51.0274L308.19 51.0273ZM276.326 83.8516L278.326 83.8516L278.326 18.2031L276.326 18.2031L274.326 18.2031L274.326 83.8516L276.326 83.8516Z" fill="#08D16B" mask="url(#path-10-inside-5_531_441)"/>
<mask id="path-12-inside-6_531_441" fill="white">
<path fill-rule="evenodd" clip-rule="evenodd" d="M316.488 24.8271L317.133 24.8359C330.639 25.1883 341.482 36.5767 341.482 50.5742C341.482 64.7939 330.292 76.322 316.488 76.3223L316.488 24.8271Z"/>
</mask>
<path fill-rule="evenodd" clip-rule="evenodd" d="M316.488 24.8271L317.133 24.8359C330.639 25.1883 341.482 36.5767 341.482 50.5742C341.482 64.7939 330.292 76.322 316.488 76.3223L316.488 24.8271Z" fill="#08D16B"/>
<path d="M316.488 24.8271L316.516 22.8273L314.488 22.7997L314.488 24.8271L316.488 24.8271ZM317.133 24.8359L317.185 22.8366L317.173 22.8363L317.16 22.8361L317.133 24.8359ZM341.482 50.5742L343.482 50.5742L343.482 50.5742L341.482 50.5742ZM316.488 76.3223L314.488 76.3223L314.488 78.3223L316.488 78.3223L316.488 76.3223ZM316.488 24.8271L316.461 26.827L317.106 26.8357L317.133 24.8359L317.16 22.8361L316.516 22.8273L316.488 24.8271ZM317.133 24.8359L317.081 26.8353C329.452 27.158 339.482 37.6096 339.482 50.5742L341.482 50.5742L343.482 50.5742C343.482 35.5438 331.825 23.2186 317.185 22.8366L317.133 24.8359ZM341.482 50.5742L339.482 50.5742C339.482 63.7458 329.132 74.322 316.488 74.3223L316.488 76.3223L316.488 78.3223C331.452 78.322 343.482 65.842 343.482 50.5742L341.482 50.5742ZM316.488 76.3223L318.488 76.3223L318.488 24.8271L316.488 24.8271L314.488 24.8271L314.488 76.3223L316.488 76.3223Z" fill="#08D16B" mask="url(#path-12-inside-6_531_441)"/>
</svg>
